<?xml version="1.0" encoding="utf-8"?>
<svg xmlns="http://www.w3.org/2000/svg" viewBox="0 0 24 24">
    <!-- Sourced from https://fonts.google.com/icons : Icon name = local_fire_department -->
    <path
            fill="black"
            d="M 19.48 12.35 c -1.57-4.08-7.16-4.3-5.81-10.23 c 0.1-0.44-0.37-0.78-0.75-0.55
            C 9.29 3.71, 6.68 8, 8.87 13.62 c 0.18 0.46-0.36 0.89-0.75 0.59 c -1.81-1.37-2-3.34-1.84-4.75 c 0.06-0.52-0.62-0.77-0.91-0.34
            C 4.69 10.16, 4 11.84, 4 14.37 c 0.38 5.6, 5.11 7.32, 6.81 7.54 c 2.43 0.31 5.06-0.14 6.95-1.87
            C 19.84 18.11, 20.6 15.03, 19.48 12.35 Z
            M 10.2 17.38 c 1.44-0.35 2.18-1.39 2.38-2.31 c 0.33-1.43-0.96-2.83-0.09-5.09 c 0.33 1.87, 3.27 3.04, 3.27 5.08 C 15.84 17.59, 13.1 19.76, 10.2 17.38 Z"/>
    <desc>"Flame icon"</desc>
</svg>