<?xml version="1.0" encoding="utf-8"?>
<svg xmlns="http://www.w3.org/2000/svg" viewBox="0 0 24 24">
    <!-- Sourced from https://fonts.google.com/icons : Icon name = help -->
    <path
            fill="black"
            d="M 12 2 C 6.48 2, 2 6.48, 2 12 s 4.48 10, 10 10, 10-4.48 10-10 S 17.52 2, 12 2 Z
            m 1 17 h -2 v -2 h 2 v 2 Z
            m 2.07-7.75 l -.9.92 C 13.45 12.9, 13 13.5, 13 15 h -2 v-.5 c 0-1.1.45-2.1 1.17-2.83 l 1.24-1.26 c .37-.36.59-.86.59-1.41 0-1.1-.9-2-2-2 s -2 .9-2 2 H 8 c 0-2.21 1.79-4 4-4 s 4 1.79, 4 4 c 0 .88-.36 1.68-.93 2.25 Z"/>
    <desc>"Help info icon"</desc>
</svg>